Coordinates
version=1
nRows=6
nColumns=36
inDegrees=yes

Units are S.I. units (second, meters, Newtons, ...)
If the header above contains a line with 'inDegrees', this indicates whether rotational values are in degrees (yes) or radians (no).

endheader
time	pelvis_tilt	pelvis_list	pelvis_rotation	pelvis_tx	pelvis_ty	pelvis_tz	hip_flexion_r	hip_adduction_r	hip_rotation_r	knee_angle_r	knee_angle_r_beta	ankle_angle_r	subtalar_angle_r	mtp_angle_r	hip_flexion_l	hip_adduction_l	hip_rotation_l	knee_angle_l	knee_angle_l_beta	ankle_angle_l	subtalar_angle_l	mtp_angle_l	lumbar_extension	lumbar_bending	lumbar_rotation	arm_flex_r	arm_add_r	arm_rot_r	elbow_flex_r	pro_sup_r	arm_flex_l	arm_add_l	arm_rot_l	elbow_flex_l	pro_sup_l
      1.50000000	      8.86618778	      3.14334476	      4.45480413	     -0.81160005	      1.21115265	     -0.18527184	     -7.90987231	     -8.38587295	     -5.24911754	      7.31955546	      0.12775034	     17.13710936	      2.86469813	     -7.49999987	    -12.73790811	      0.92014154	     -5.49831444	      0.69498750	      0.01212982	      8.75849856	      2.36069054	     -7.49999987	    -12.89274268	     -2.64017714	      2.57720914	     -2.67970403	    -16.12237358	     21.07025080	     31.35692527	     83.95311670	      0.46956907	    -13.86288653	     28.71264017	     25.62446843	     87.55779826
      1.51666670	      8.88195010	      3.13115237	      4.46995615	     -0.82020228	      1.21851596	     -0.18045947	     -7.90412103	     -8.37242901	     -5.22965886	      7.42270635	      0.12955067	     17.20235838	      2.82987688	     -7.49999987	    -12.77384781	      0.91189425	     -5.34939420	      0.71674820	      0.01250962	      8.55604753	      2.01896534	     -7.49999987	    -12.90520620	     -2.73413120	      2.71475557	     -2.61715528	    -16.30318568	     21.74153073	     32.21750024	     83.92224597	      1.35086943	    -13.91355926	     29.97042768	     26.70569705	     87.83907718
      1.53333330	      8.95704862	      3.19336601	      4.40828678	     -0.82046434	      1.21028187	     -0.18050401	     -8.03101743	     -8.42706172	     -5.06732189	      7.35696187	      0.12840321	     17.10660593	      2.49098213	     -7.49999987	    -12.86725211	      1.01510318	     -4.99340344	      0.71788045	      0.01252938	      8.53603348	      1.59112508	     -7.49999987	    -13.09857452	     -2.86384029	      2.80725603	     -2.07780223	    -16.41630337	     22.05026458	     34.10564045	     81.24193200	      1.85211475	    -14.13405813	     30.39438330	     28.61046251	     84.90847679
      1.55000000	      8.75565134	      3.14050431	      4.32806577	     -0.82889935	      1.20253467	     -0.17582106	     -7.63948017	     -8.40364862	     -5.28397856	      7.54373617	      0.13166303	     17.32710704	      3.07167119	     -7.49999987	    -12.52902887	      0.97973963	     -5.35793572	      0.80022375	      0.01396654	      8.78793675	      2.16595270	     -7.49999987	    -12.88191027	     -2.92766963	      3.05649910	     -0.97840025	    -16.71651006	     24.16424072	     35.71648849	     79.73376084	      3.62627731	    -14.18362913	     33.18991806	     29.18724295	     83.99981758
      1.56666670	      8.59138719	      3.04097072	      4.16586469	     -0.83684892	      1.20484405	     -0.17069828	     -7.19433804	     -8.29304380	     -5.16962360	      7.71859126	      0.13471483	     17.15750698	      2.99879313	     -7.49999987	    -12.06934101	      0.88375299	     -5.41246491	      0.95661069	      0.01669601	      8.92449994	      1.92058231	     -7.49999987	    -13.08970442	     -3.02547177	      3.24034323	      0.77091099	    -16.32077547	     24.34050050	     36.70676454	     79.73787293	      5.61394030	    -13.65410680	     33.31559981	     30.02423281	     84.13603681
      1.58333330	      8.27511232	      2.96351061	      4.14770441	     -0.84267273	      1.20511477	     -0.17474565	     -6.66009293	     -8.22000416	     -5.13319685	      7.68088933	      0.13405681	     16.96282422	      3.08205054	     -7.49999987	    -11.43600176	      0.81777150	     -5.39331232	      1.00353316	      0.01751496	      8.99834286	      1.87156694	     -7.49999987	    -13.18020753	     -3.03688822	      3.40454487	      2.64607339	    -15.80717859	     24.39269152	     37.51589479	     79.73969449	      7.57172207	    -12.91031925	     33.30233696	     30.77186692	     84.18780655
